# OBJ generated by ONSHAPE BY PTC INC, 1.213 Units = meters
mtllib convexhull.mtl
g Part 2
v -4.20872 0 -0.594075 
v -3.08437 0 -0.594075 
v -3.64654 0.149981 -0.594075 
v -4.20872 0 -2.45034 
v -3.08437 0 -2.45034 
v -3.64654 0.149981 -2.45034 
vn 0 0 1 
vn 0 -1 0 
vn 0.257771 0.966206 0 
vn -0.257771 0.966206 0 
vn 0 0 -1 
usemtl 0.615686_0.811765_0.929412_0.000000_0.000000
o mesh0
f 1//1 2//1 3//1 
o mesh1
f 1//2 4//2 5//2 
f 5//2 2//2 1//2 
o mesh2
f 6//3 3//3 2//3 
f 2//3 5//3 6//3 
o mesh3
f 4//4 1//4 3//4 
f 3//4 6//4 4//4 
o mesh4
f 5//5 4//5 6//5 
g Part 3
v 4.20872 0 0.594075 
v 3.08437 0 0.594075 
v 3.64654 0.149981 0.594075 
v 4.20872 0 2.45034 
v 3.08437 0 2.45034 
v 3.64654 0.149981 2.45034 
vn 0 0 -1 
vn 0 -1 0 
vn -0.257771 0.966206 0 
vn 0.257771 0.966206 0 
vn 0 0 1 
o mesh5
f 7//6 8//6 9//6 
o mesh6
f 7//7 10//7 11//7 
f 11//7 8//7 7//7 
o mesh7
f 12//8 9//8 8//8 
f 8//8 11//8 12//8 
o mesh8
f 10//9 7//9 9//9 
f 9//9 12//9 10//9 
o mesh9
f 11//10 10//10 12//10 
g Part 4
v -3.64654 0.149981 0.594075 
v -3.08437 0 0.594075 
v -4.20872 0 0.594075 
v -3.08437 0 2.45034 
v -4.20872 0 2.45034 
v -3.64654 0.149981 2.45034 
vn 0 0 -1 
vn 0 -1 0 
vn 0.257771 0.966206 0 
vn -0.257771 0.966206 0 
vn 0 0 1 
o mesh10
f 13//11 14//11 15//11 
o mesh11
f 14//12 16//12 17//12 
f 17//12 15//12 14//12 
o mesh12
f 16//13 14//13 13//13 
f 13//13 18//13 16//13 
o mesh13
f 18//14 13//14 15//14 
f 15//14 17//14 18//14 
o mesh14
f 18//15 17//15 16//15 
g Part 1
v 3.64654 0.149981 -0.594075 
v 3.08437 0 -0.594075 
v 4.20872 0 -0.594075 
v 3.08437 0 -2.45034 
v 4.20872 0 -2.45034 
v 3.64654 0.149981 -2.45034 
vn 0 0 1 
vn 0 -1 0 
vn -0.257771 0.966206 0 
vn 0.257771 0.966206 0 
vn 0 0 -1 
o mesh15
f 19//16 20//16 21//16 
o mesh16
f 20//17 22//17 23//17 
f 23//17 21//17 20//17 
o mesh17
f 22//18 20//18 19//18 
f 19//18 24//18 22//18 
o mesh18
f 24//19 19//19 21//19 
f 21//19 23//19 24//19 
o mesh19
f 24//20 23//20 22//20 
g Part 7
v -3.08437 1 -0.594075 
v -3.08437 0 -0.594075 
v -4.20872 0 -0.594075 
v -4.20872 1 -0.594075 
v -3.08437 1 2.57402e-16 
v -3.08437 0 2.57402e-16 
v -4.20872 1 1.22125e-15 
v -4.20872 0 1.22125e-15 
vn 0 0 -1 
vn 1 0 0 
vn -2.44929e-16 0 1 
vn -1 0 0 
vn 0 1 0 
vn 0 -1 0 
usemtl 0.231373_0.380392_0.705882_0.000000_0.000000
o mesh20
f 25//21 26//21 27//21 
f 27//21 28//21 25//21 
o mesh21
f 29//22 30//22 26//22 
f 26//22 25//22 29//22 
o mesh22
f 31//23 32//23 30//23 
f 30//23 29//23 31//23 
o mesh23
f 28//24 27//24 32//24 
f 32//24 31//24 28//24 
o mesh24
f 31//25 29//25 25//25 
f 25//25 28//25 31//25 
o mesh25
f 32//26 27//26 26//26 
f 26//26 30//26 32//26 
g Part 8
v 3.08437 1 0.594075 
v 3.08437 0 0.594075 
v 4.20872 0 0.594075 
v 4.20872 1 0.594075 
v 3.08437 1 -2.57402e-16 
v 3.08437 0 -2.57402e-16 
v 4.20872 1 -1.22125e-15 
v 4.20872 0 -1.22125e-15 
vn 0 0 1 
vn -1 0 0 
vn 2.44929e-16 0 -1 
vn 1 0 0 
vn 0 1 0 
vn 0 -1 0 
o mesh26
f 33//27 34//27 35//27 
f 35//27 36//27 33//27 
o mesh27
f 37//28 38//28 34//28 
f 34//28 33//28 37//28 
o mesh28
f 39//29 40//29 38//29 
f 38//29 37//29 39//29 
o mesh29
f 36//30 35//30 40//30 
f 40//30 39//30 36//30 
o mesh30
f 39//31 37//31 33//31 
f 33//31 36//31 39//31 
o mesh31
f 40//32 35//32 34//32 
f 34//32 38//32 40//32 
g Part 6
v 4.20872 1 -0.594075 
v 4.20872 0 -0.594075 
v 3.08437 0 -0.594075 
v 3.08437 1 -0.594075 
v 3.08437 0 2.57402e-16 
v 3.08437 1 2.57402e-16 
v 4.20872 0 1.22125e-15 
v 4.20872 1 1.22125e-15 
vn 0 0 -1 
vn -1 0 0 
vn 2.44929e-16 0 1 
vn 1 0 0 
vn 0 1 0 
vn 0 -1 0 
o mesh32
f 41//33 42//33 43//33 
f 43//33 44//33 41//33 
o mesh33
f 44//34 43//34 45//34 
f 45//34 46//34 44//34 
o mesh34
f 46//35 45//35 47//35 
f 47//35 48//35 46//35 
o mesh35
f 48//36 47//36 42//36 
f 42//36 41//36 48//36 
o mesh36
f 48//37 41//37 44//37 
f 44//37 46//37 48//37 
o mesh37
f 47//38 45//38 43//38 
f 43//38 42//38 47//38 
g Part 5
v 9.27059 -1 -5.04098 
v 0 -1 -5.04098 
v 0 1 -5.04098 
v -9.27059 1 -5.04098 
v -9.27059 -1 -5.04098 
v 9.27059 1 -5.04098 
v -9.27059 -1 4.44089e-15 
v -9.27059 1 4.44089e-15 
v -9.27059 1 5.04098 
v -9.27059 -1 5.04098 
v 0 -1 5.04098 
v 0 1 5.04098 
v 9.27059 1 5.04098 
v 9.27059 -1 5.04098 
v 9.27059 -1 0 
v 9.27059 1 0 
v 8.27059 1 -4.04098 
v 8.27059 1 4.04098 
v -8.27059 1 -4.04098 
v 0 1 -4.04098 
v 3.55271e-15 1 4.04098 
v -8.27059 1 4.04098 
v 0 0 -4.04098 
v -8.27059 0 -4.04098 
v 8.27059 0 -4.04098 
v 8.27059 0 4.04098 
v 3.55271e-15 0 4.04098 
v -8.27059 0 4.04098 
vn 0 0 -1 
vn -1 0 0 
vn 0 0 1 
vn 1 0 0 
vn 0 -1 0 
vn 0 1 0 
vn 0 0 1 
vn -1 0 0 
vn -5.90645e-16 0 -1 
vn 1 0 -4.39585e-16 
vn 0 1 0 
usemtl 0.647059_0.647059_0.647059_0.000000_0.000000
o mesh38
f 49//39 50//39 51//39 
f 52//39 51//39 50//39 
f 50//39 53//39 52//39 
f 51//39 54//39 49//39 
o mesh39
f 53//40 55//40 56//40 
f 57//40 56//40 55//40 
f 55//40 58//40 57//40 
f 56//40 52//40 53//40 
o mesh40
f 58//41 59//41 60//41 
f 61//41 60//41 59//41 
f 59//41 62//41 61//41 
f 60//41 57//41 58//41 
o mesh41
f 62//42 63//42 64//42 
f 54//42 64//42 63//42 
f 63//42 49//42 54//42 
f 64//42 61//42 62//42 
o mesh42
f 59//43 50//43 63//43 
f 50//43 59//43 55//43 
f 50//43 49//43 63//43 
f 59//43 58//43 55//43 
f 55//43 53//43 50//43 
f 63//43 62//43 59//43 
o mesh43
f 65//44 66//44 64//44 
f 51//44 52//44 67//44 
f 51//44 68//44 65//44 
f 67//44 52//44 56//44 
f 60//44 69//44 70//44 
f 60//44 61//44 66//44 
f 66//44 61//44 64//44 
f 65//44 54//44 51//44 
f 56//44 70//44 67//44 
f 66//44 69//44 60//44 
f 67//44 68//44 51//44 
f 70//44 57//44 60//44 
f 56//44 57//44 70//44 
f 64//44 54//44 65//44 
o mesh44
f 65//45 68//45 71//45 
f 72//45 71//45 68//45 
f 68//45 67//45 72//45 
f 71//45 73//45 65//45 
o mesh45
f 65//46 73//46 74//46 
f 74//46 66//46 65//46 
o mesh46
f 70//47 69//47 75//47 
f 74//47 75//47 69//47 
f 69//47 66//47 74//47 
f 75//47 76//47 70//47 
o mesh47
f 70//48 76//48 72//48 
f 72//48 67//48 70//48 
o mesh48
f 76//49 75//49 71//49 
f 71//49 75//49 74//49 
f 74//49 73//49 71//49 
f 71//49 72//49 76//49 
g Part 9
v -4.20872 1 0.594075 
v -4.20872 0 0.594075 
v -3.08437 0 0.594075 
v -3.08437 1 0.594075 
v -3.08437 0 -2.57402e-16 
v -3.08437 1 -2.57402e-16 
v -4.20872 0 -1.22125e-15 
v -4.20872 1 -1.22125e-15 
vn 0 0 1 
vn 1 0 0 
vn -2.44929e-16 0 -1 
vn -1 0 0 
vn 0 1 0 
vn 0 -1 0 
usemtl 0.231373_0.380392_0.705882_0.000000_0.000000
o mesh49
f 77//50 78//50 79//50 
f 79//50 80//50 77//50 
o mesh50
f 80//51 79//51 81//51 
f 81//51 82//51 80//51 
o mesh51
f 82//52 81//52 83//52 
f 83//52 84//52 82//52 
o mesh52
f 84//53 83//53 78//53 
f 78//53 77//53 84//53 
o mesh53
f 84//54 77//54 80//54 
f 80//54 82//54 84//54 
o mesh54
f 83//55 81//55 79//55 
f 79//55 78//55 83//55 
