# Blender 5.1.1
# www.blender.org
mtllib hull.mtl
o mesh9
v 4.208720 0.000000 2.450340
v 3.084370 0.000000 2.450340
v 3.646540 0.149981 2.450340
v -4.208721 -0.000000 -0.594075
v -3.084370 -0.000000 -0.594075
v -3.646540 0.149981 -0.594075
v -4.208720 -0.000000 -2.450340
v -3.084370 -0.000000 -2.450340
v -3.646540 0.149981 0.594075
v -3.084370 0.000000 0.594075
v -4.208721 0.000000 0.594075
v -3.084370 0.000000 2.450340
v -4.208720 0.000000 2.450340
v -3.646540 0.149981 2.450340
v 3.646540 0.149981 -0.594075
v 3.084370 -0.000000 -0.594075
v 4.208721 -0.000000 -0.594075
v 3.084370 -0.000000 -2.450340
v 4.208720 -0.000000 -2.450340
v 3.646540 0.149981 -2.450340
v -3.646540 0.149981 -2.450340
v -3.084370 1.000000 -0.594075
v -4.208720 1.000000 -0.594075
v -4.208721 1.000000 -0.000000
v -4.208721 0.000000 0.000000
v 3.084370 1.000000 0.594075
v 3.084370 0.000000 0.594075
v 4.208721 0.000000 0.594075
v 4.208720 1.000000 0.594075
v 3.084370 1.000000 -0.000000
v 4.208721 1.000000 -0.000000
v 4.208721 0.000000 0.000000
v 4.208720 1.000000 -0.594075
v 3.084370 1.000000 -0.594075
v 3.084370 0.000000 0.000000
v 9.270590 -1.000000 -5.040980
v 0.000000 -1.000000 -5.040980
v 0.000000 1.000000 -5.040980
v -9.270590 1.000000 -5.040980
v -9.270590 -1.000000 -5.040980
v 9.270590 1.000000 -5.040980
v -9.270590 -1.000000 0.000000
v -9.270590 1.000000 -0.000000
v -9.270590 1.000000 5.040980
v -9.270590 -1.000000 5.040980
v 0.000000 -1.000000 5.040980
v 0.000000 1.000000 5.040980
v 9.270590 1.000000 5.040980
v 9.270590 -1.000000 5.040980
v 9.270590 -1.000000 0.000000
v 9.270590 1.000000 -0.000000
v 8.270590 1.000000 -4.040980
v 8.270590 1.000000 4.040980
v -8.270590 1.000000 -4.040980
v 0.000000 1.000000 -4.040980
v 0.000000 1.000000 4.040980
v -8.270590 1.000000 4.040980
v 0.000000 -0.000000 -4.040980
v -8.270590 -0.000000 -4.040980
v 8.270590 -0.000000 -4.040980
v 8.270590 0.000000 4.040980
v 0.000000 0.000000 4.040980
v -8.270590 0.000000 4.040980
v -4.208720 1.000000 0.594075
v -3.084370 1.000000 0.594075
v 3.646540 0.149981 0.594075
v -3.084370 0.000000 0.000000
v -3.084370 1.000000 -0.000000
vn -0.0000 -0.0000 1.0000
vn -0.0000 -1.0000 -0.0000
vn -0.0000 -0.0000 -1.0000
vn 0.2578 0.9662 -0.0000
vn -0.2578 0.9662 -0.0000
vn 1.0000 -0.0000 -0.0000
vn -1.0000 -0.0000 -0.0000
vn -0.0000 1.0000 -0.0000
s 0
usemtl 0.615686_0.811765_0.929412_0.000000_0.000000
f 2//1 1//1 3//1
f 4//1 5//1 6//1
f 4//2 7//2 8//2
f 8//2 5//2 4//2
f 9//3 10//3 11//3
f 10//2 12//2 13//2
f 13//2 11//2 10//2
f 12//4 10//4 9//4
f 9//4 14//4 12//4
f 14//5 9//5 11//5
f 11//5 13//5 14//5
f 14//1 13//1 12//1
f 15//1 16//1 17//1
f 16//2 18//2 19//2
f 19//2 17//2 16//2
f 18//5 16//5 15//5
f 15//5 20//5 18//5
f 20//4 15//4 17//4
f 17//4 19//4 20//4
f 20//3 19//3 18//3
f 21//4 6//4 5//4
f 5//4 8//4 21//4
f 7//5 4//5 6//5
f 6//5 21//5 7//5
f 8//3 7//3 21//3
f 28//3 27//3 66//3
f 28//2 1//2 2//2
f 2//2 27//2 28//2
f 3//5 66//5 27//5
f 27//5 2//5 3//5
f 1//4 28//4 66//4
f 66//4 3//4 1//4
usemtl 0.231373_0.380392_0.705882_0.000000_0.000000
f 22//3 5//3 4//3
f 4//3 23//3 22//3
f 68//6 67//6 5//6
f 5//6 22//6 68//6
f 24//1 25//1 67//1
f 67//1 68//1 24//1
f 23//7 4//7 25//7
f 25//7 24//7 23//7
f 24//8 68//8 22//8
f 22//8 23//8 24//8
f 25//2 4//2 5//2
f 5//2 67//2 25//2
f 26//1 27//1 28//1
f 28//1 29//1 26//1
f 30//7 35//7 27//7
f 27//7 26//7 30//7
f 31//3 32//3 35//3
f 35//3 30//3 31//3
f 29//6 28//6 32//6
f 32//6 31//6 29//6
f 31//8 30//8 26//8
f 26//8 29//8 31//8
f 32//2 28//2 27//2
f 27//2 35//2 32//2
f 33//3 17//3 16//3
f 16//3 34//3 33//3
f 34//7 16//7 35//7
f 35//7 30//7 34//7
f 30//1 35//1 32//1
f 32//1 31//1 30//1
f 31//6 32//6 17//6
f 17//6 33//6 31//6
f 31//8 33//8 34//8
f 34//8 30//8 31//8
f 32//2 35//2 16//2
f 16//2 17//2 32//2
f 64//1 11//1 10//1
f 10//1 65//1 64//1
f 65//6 10//6 67//6
f 67//6 68//6 65//6
f 68//3 67//3 25//3
f 25//3 24//3 68//3
f 24//7 25//7 11//7
f 11//7 64//7 24//7
f 24//8 64//8 65//8
f 65//8 68//8 24//8
f 25//2 67//2 10//2
f 10//2 11//2 25//2
usemtl 0.647059_0.647059_0.647059_0.000000_0.000000
f 36//3 37//3 38//3
f 39//3 38//3 37//3
f 37//3 40//3 39//3
f 38//3 41//3 36//3
f 40//7 42//7 43//7
f 44//7 43//7 42//7
f 42//7 45//7 44//7
f 43//7 39//7 40//7
f 45//1 46//1 47//1
f 48//1 47//1 46//1
f 46//1 49//1 48//1
f 47//1 44//1 45//1
f 49//6 50//6 51//6
f 41//6 51//6 50//6
f 50//6 36//6 41//6
f 51//6 48//6 49//6
f 46//2 37//2 50//2
f 37//2 46//2 42//2
f 37//2 36//2 50//2
f 46//2 45//2 42//2
f 42//2 40//2 37//2
f 50//2 49//2 46//2
f 52//8 53//8 51//8
f 38//8 39//8 54//8
f 38//8 55//8 52//8
f 54//8 39//8 43//8
f 47//8 56//8 57//8
f 47//8 48//8 53//8
f 53//8 48//8 51//8
f 52//8 41//8 38//8
f 43//8 57//8 54//8
f 53//8 56//8 47//8
f 54//8 55//8 38//8
f 57//8 44//8 47//8
f 43//8 44//8 57//8
f 51//8 41//8 52//8
f 52//1 55//1 58//1
f 59//1 58//1 55//1
f 55//1 54//1 59//1
f 58//1 60//1 52//1
f 52//7 60//7 61//7
f 61//7 53//7 52//7
f 57//3 56//3 62//3
f 61//3 62//3 56//3
f 56//3 53//3 61//3
f 62//3 63//3 57//3
f 57//6 63//6 59//6
f 59//6 54//6 57//6
f 63//8 62//8 58//8
f 58//8 62//8 61//8
f 61//8 60//8 58//8
f 58//8 59//8 63//8
